<svg width="100" height="30" viewBox="0 0 100 30" fill="none" xmlns="http://www.w3.org/2000/svg">
<rect width="100" height="30" fill="#FFF11E"/>
<rect width="100" height="30" fill="#FFF11E"/>
<path d="M0 0H45L55.5 30H0V0Z" fill="#FFF11E"/>
<path d="M0 0H45L55.5 30H0V0Z" fill="#003465"/>
<path d="M18.1406 8.50391H11.2852V12.8984H17.0156C17.5469 12.8984 17.9414 13.0195 18.1992 13.2617C18.4648 13.4961 18.5977 13.8125 18.5977 14.2109C18.5977 14.6094 18.4648 14.9258 18.1992 15.1602C17.9336 15.3945 17.5391 15.5117 17.0156 15.5117H11.2852V21.1719C11.2852 21.8906 11.1211 22.4258 10.793 22.7773C10.4727 23.1211 10.0586 23.293 9.55078 23.293C9.03516 23.293 8.61328 23.1172 8.28516 22.7656C7.96484 22.4141 7.80469 21.8828 7.80469 21.1719V7.95312C7.80469 7.45312 7.87891 7.04688 8.02734 6.73438C8.17578 6.41406 8.40625 6.18359 8.71875 6.04297C9.03906 5.89453 9.44531 5.82031 9.9375 5.82031H18.1406C18.6953 5.82031 19.1055 5.94531 19.3711 6.19531C19.6445 6.4375 19.7812 6.75781 19.7812 7.15625C19.7812 7.5625 19.6445 7.89063 19.3711 8.14062C19.1055 8.38281 18.6953 8.50391 18.1406 8.50391ZM33.2227 16.7891C33.2227 17.7422 33.0742 18.6211 32.7773 19.4258C32.4805 20.2305 32.0508 20.9219 31.4883 21.5C30.9258 22.0781 30.2539 22.5234 29.4727 22.8359C28.6914 23.1406 27.8125 23.293 26.8359 23.293C25.8672 23.293 24.9961 23.1367 24.2227 22.8242C23.4492 22.5117 22.7773 22.0664 22.207 21.4883C21.6445 20.9023 21.2148 20.2148 20.918 19.4258C20.6289 18.6289 20.4844 17.75 20.4844 16.7891C20.4844 15.8203 20.6328 14.9336 20.9297 14.1289C21.2266 13.3242 21.6523 12.6367 22.207 12.0664C22.7617 11.4961 23.4336 11.0586 24.2227 10.7539C25.0117 10.4414 25.8828 10.2852 26.8359 10.2852C27.8047 10.2852 28.6836 10.4414 29.4727 10.7539C30.2617 11.0664 30.9375 11.5117 31.5 12.0898C32.0625 12.668 32.4883 13.3555 32.7773 14.1523C33.0742 14.9492 33.2227 15.8281 33.2227 16.7891ZM30.0117 16.7891C30.0117 15.4844 29.7227 14.4688 29.1445 13.7422C28.5742 13.0156 27.8047 12.6523 26.8359 12.6523C26.2109 12.6523 25.6602 12.8164 25.1836 13.1445C24.707 13.4648 24.3398 13.9414 24.082 14.5742C23.8242 15.207 23.6953 15.9453 23.6953 16.7891C23.6953 17.625 23.8203 18.3555 24.0703 18.9805C24.3281 19.6055 24.6914 20.0859 25.1602 20.4219C25.6367 20.75 26.1953 20.9141 26.8359 20.9141C27.8047 20.9141 28.5742 20.5508 29.1445 19.8242C29.7227 19.0898 30.0117 18.0781 30.0117 16.7891ZM42.082 21.9688L39.7617 18.5586L37.3828 21.9688C37.0391 22.4453 36.7461 22.7852 36.5039 22.9883C36.2695 23.1914 35.9688 23.293 35.6016 23.293C35.1953 23.293 34.8477 23.168 34.5586 22.918C34.2773 22.6602 34.1367 22.3672 34.1367 22.0391C34.1367 21.7031 34.3555 21.2227 34.793 20.5977L37.6875 16.4492L35.1211 12.9922C34.6758 12.4219 34.4531 11.9258 34.4531 11.5039C34.4531 11.1758 34.5859 10.8906 34.8516 10.6484C35.1172 10.4062 35.4648 10.2852 35.8945 10.2852C36.2695 10.2852 36.5781 10.3906 36.8203 10.6016C37.0703 10.8125 37.3594 11.1445 37.6875 11.5977L39.7617 14.4336L41.7773 11.5977C42.1133 11.1289 42.4023 10.793 42.6445 10.5898C42.8945 10.3867 43.2031 10.2852 43.5703 10.2852C43.9922 10.2852 44.3398 10.4062 44.6133 10.6484C44.8945 10.8828 45.0352 11.168 45.0352 11.5039C45.0352 11.7461 44.9766 11.9805 44.8594 12.207C44.75 12.4258 44.5781 12.6875 44.3438 12.9922L41.7773 16.4492L44.6719 20.5977C45.125 21.2461 45.3516 21.7344 45.3516 22.0625C45.3516 22.3984 45.2109 22.6875 44.9297 22.9297C44.6484 23.1719 44.3008 23.293 43.8867 23.293C43.5195 23.293 43.207 23.1875 42.9492 22.9766C42.6992 22.7656 42.4102 22.4297 42.082 21.9688Z" fill="white"/>
<path d="M56.4258 7.8125L60.3164 19.332L64.2188 7.73047C64.4219 7.12109 64.5742 6.69922 64.6758 6.46484C64.7773 6.22266 64.9453 6.00781 65.1797 5.82031C65.4141 5.625 65.7344 5.52734 66.1406 5.52734C66.4375 5.52734 66.7109 5.60156 66.9609 5.75C67.2188 5.89844 67.418 6.09766 67.5586 6.34766C67.707 6.58984 67.7812 6.83594 67.7812 7.08594C67.7812 7.25781 67.7578 7.44531 67.7109 7.64844C67.6641 7.84375 67.6055 8.03906 67.5352 8.23438C67.4648 8.42188 67.3945 8.61719 67.3242 8.82031L63.1641 20.0469C63.0156 20.4766 62.8672 20.8867 62.7188 21.2773C62.5703 21.6602 62.3984 22 62.2031 22.2969C62.0078 22.5859 61.7461 22.8242 61.418 23.0117C61.0977 23.1992 60.7031 23.293 60.2344 23.293C59.7656 23.293 59.3672 23.1992 59.0391 23.0117C58.7188 22.832 58.457 22.5938 58.2539 22.2969C58.0586 21.9922 57.8867 21.6484 57.7383 21.2656C57.5898 20.8828 57.4414 20.4766 57.293 20.0469L53.2031 8.91406C53.1328 8.71094 53.0586 8.51172 52.9805 8.31641C52.9102 8.12109 52.8477 7.91016 52.793 7.68359C52.7461 7.45703 52.7227 7.26562 52.7227 7.10938C52.7227 6.71094 52.8828 6.34766 53.2031 6.01953C53.5234 5.69141 53.9258 5.52734 54.4102 5.52734C55.0039 5.52734 55.4219 5.71094 55.6641 6.07812C55.9141 6.4375 56.168 7.01562 56.4258 7.8125ZM80.9648 16.7891C80.9648 17.7422 80.8164 18.6211 80.5195 19.4258C80.2227 20.2305 79.793 20.9219 79.2305 21.5C78.668 22.0781 77.9961 22.5234 77.2148 22.8359C76.4336 23.1406 75.5547 23.293 74.5781 23.293C73.6094 23.293 72.7383 23.1367 71.9648 22.8242C71.1914 22.5117 70.5195 22.0664 69.9492 21.4883C69.3867 20.9023 68.957 20.2148 68.6602 19.4258C68.3711 18.6289 68.2266 17.75 68.2266 16.7891C68.2266 15.8203 68.375 14.9336 68.6719 14.1289C68.9688 13.3242 69.3945 12.6367 69.9492 12.0664C70.5039 11.4961 71.1758 11.0586 71.9648 10.7539C72.7539 10.4414 73.625 10.2852 74.5781 10.2852C75.5469 10.2852 76.4258 10.4414 77.2148 10.7539C78.0039 11.0664 78.6797 11.5117 79.2422 12.0898C79.8047 12.668 80.2305 13.3555 80.5195 14.1523C80.8164 14.9492 80.9648 15.8281 80.9648 16.7891ZM77.7539 16.7891C77.7539 15.4844 77.4648 14.4688 76.8867 13.7422C76.3164 13.0156 75.5469 12.6523 74.5781 12.6523C73.9531 12.6523 73.4023 12.8164 72.9258 13.1445C72.4492 13.4648 72.082 13.9414 71.8242 14.5742C71.5664 15.207 71.4375 15.9453 71.4375 16.7891C71.4375 17.625 71.5625 18.3555 71.8125 18.9805C72.0703 19.6055 72.4336 20.0859 72.9023 20.4219C73.3789 20.75 73.9375 20.9141 74.5781 20.9141C75.5469 20.9141 76.3164 20.5508 76.8867 19.8242C77.4648 19.0898 77.7539 18.0781 77.7539 16.7891ZM89.8242 21.9688L87.5039 18.5586L85.125 21.9688C84.7812 22.4453 84.4883 22.7852 84.2461 22.9883C84.0117 23.1914 83.7109 23.293 83.3438 23.293C82.9375 23.293 82.5898 23.168 82.3008 22.918C82.0195 22.6602 81.8789 22.3672 81.8789 22.0391C81.8789 21.7031 82.0977 21.2227 82.5352 20.5977L85.4297 16.4492L82.8633 12.9922C82.418 12.4219 82.1953 11.9258 82.1953 11.5039C82.1953 11.1758 82.3281 10.8906 82.5938 10.6484C82.8594 10.4062 83.207 10.2852 83.6367 10.2852C84.0117 10.2852 84.3203 10.3906 84.5625 10.6016C84.8125 10.8125 85.1016 11.1445 85.4297 11.5977L87.5039 14.4336L89.5195 11.5977C89.8555 11.1289 90.1445 10.793 90.3867 10.5898C90.6367 10.3867 90.9453 10.2852 91.3125 10.2852C91.7344 10.2852 92.082 10.4062 92.3555 10.6484C92.6367 10.8828 92.7773 11.168 92.7773 11.5039C92.7773 11.7461 92.7188 11.9805 92.6016 12.207C92.4922 12.4258 92.3203 12.6875 92.0859 12.9922L89.5195 16.4492L92.4141 20.5977C92.8672 21.2461 93.0938 21.7344 93.0938 22.0625C93.0938 22.3984 92.9531 22.6875 92.6719 22.9297C92.3906 23.1719 92.043 23.293 91.6289 23.293C91.2617 23.293 90.9492 23.1875 90.6914 22.9766C90.4414 22.7656 90.1523 22.4297 89.8242 21.9688Z" fill="black"/>
</svg>
